<svg viewBox="-20 0 480 480" xmlns="http://www.w3.org/2000/svg"><path d="m352 240c0 70.691406-57.308594 128-128 128s-128-57.308594-128-128 57.308594-128 128-128 128 57.308594 128 128zm0 0" fill="#cdcdcf"/><g fill="#d6f4ff"><path d="m145.960938 385.519531-39.730469-21.519531-39.71875 21.519531c-10.738281 5.8125-20.40625 13.414063-28.582031 22.480469h136.605468c-8.175781-9.066406-17.839844-16.667969-28.574218-22.480469zm0 0"/><path d="m176.511719 72h-140.558594c7.832031 9.199219 17.160156 17.003906 27.589844 23.097656l42.6875 24.902344 42.691406-24.902344c10.429687-6.09375 19.757813-13.898437 27.589844-23.097656zm0 0"/><path d="m200 24h-187.535156c3.664062 17.722656 11.742187 34.230469 23.488281 48h140.558594c11.746093-13.765625 19.824219-30.277344 23.488281-48zm0 0"/><path d="m174.535156 408h-136.605468c-12.269532 13.613281-20.851563 30.136719-24.929688 48h186.472656c-4.085937-17.863281-12.667968-34.386719-24.9375-48zm0 0"/></g><path d="m368 320-64 64 58.742188 58.742188c11.40625 11.570312 28.136718 16.140624 43.839843 11.972656 15.703125-4.167969 27.964844-16.429688 32.132813-32.132813 4.167968-15.703125-.402344-32.433593-11.972656-43.839843zm0 0" fill="#cdcdcf"/><path d="m340.601562 292.601562c-12.851562 28.398438-35.601562 51.148438-64 64l51.398438 51.398438 40-88zm0 0" fill="#bebebf"/><path d="m208 264h-76.855469c10.902344 42.371094 49.105469 71.988281 92.855469 71.988281s81.953125-29.617187 92.855469-71.988281zm0 0" fill="#4a99b5"/><path d="m240 240-32 24h108.855469c4.191406-15.726562 4.191406-32.273438 0-48h-108.855469zm0 0" fill="#fcd842"/><path d="m316.855469 216c-10.902344-42.371094-49.105469-71.988281-92.855469-71.988281s-81.953125 29.617187-92.855469 71.988281zm0 0" fill="#4a99b5"/><path d="m240 240-32-24h-76.855469c-4.191406 15.726562-4.191406 32.273438 0 48h76.855469zm0 0" fill="#96d137"/><path d="m0 480h16c.015625-5.359375.464844-10.710938 1.34375-16h173.3125c.878906 5.289062 1.328125 10.640625 1.34375 16h16c.023438-42.375-23.191406-81.351562-60.464844-101.511719l-74.847656-40.542969c-8.882812-4.824218-17.050781-10.863281-24.261719-17.945312h31.574219v-16h-45.023438c-6.710937-9.773438-11.769531-20.585938-14.976562-32h52v-16h-55.152344c-1.367187-10.648438-1.078125-21.441406.855469-32h54.296875v-16h-50.222656c3.957031-11.5625 9.832031-22.382812 17.375-32h40.847656v-16h-25.40625c4.71875-4.003906 9.773438-7.59375 15.109375-10.726562l81.015625-47.265626c35.410156-20.75 57.199219-58.6875 57.28125-99.726562v-2.28125h-16v2.28125c-.015625 4.589844-.347656 9.175781-1 13.71875h-174c-.652344-4.542969-.984375-9.128906-1-13.71875v-2.28125h-16v2.28125c.0820312 41.039062 21.871094 78.976562 57.28125 99.726562l30.839844 17.992188-26.480469 15.449219c-38.773437 22.621093-62.328125 64.394531-61.6171875 109.277343.7148435 44.882813 25.5781245 85.890626 65.0468745 107.273438l22.128907 12-26.734375 14.488281c-37.273438 20.160157-60.4882815 59.136719-60.464844 101.511719zm187.199219-448c-3.636719 11.605469-9.363281 22.449219-16.894531 32h-132.640626c-7.523437-9.550781-13.238281-20.394531-16.863281-32zm-121.863281 56.183594c-4.128907-2.433594-8.074219-5.167969-11.800782-8.183594h100.929688c-3.726563 3.015625-7.671875 5.75-11.800782 8.183594l-38.664062 22.550781zm121.359374 359.816406h-165.390624c3.984374-11.699219 10.117187-22.550781 18.078124-32h129.234376c7.960937 9.449219 14.09375 20.300781 18.078124 32zm-82.695312-74.902344 35.921875 19.453125c4.066406 2.210938 7.976563 4.699219 11.703125 7.449219h-95.25c3.726562-2.75 7.636719-5.238281 11.703125-7.449219zm0 0" fill="#4a99b5"/></svg>